<?xml version="1.0" encoding="utf-8"?>
<!-- Generator: Adobe Illustrator 19.2.0, SVG Export Plug-In . SVG Version: 6.00 Build 0)  -->
<svg version="1.1" id="Layer_1" xmlns="http://www.w3.org/2000/svg" xmlns:xlink="http://www.w3.org/1999/xlink" x="0px" y="0px"
	 viewBox="0 0 960 960" style="enable-background:new 0 0 960 960;" xml:space="preserve">
<style type="text/css">
	.st0{fill:#B3E2E5;}
	.st1{fill:#FFFFFF;}
	.st2{clip-path:url(#SVGID_2_);fill:#FFFFFF;}
	.st3{clip-path:url(#SVGID_4_);fill:#FFFFFF;}
	.st4{clip-path:url(#SVGID_6_);fill:#009DCB;}
	.st5{fill:#EAEAEA;}
	.st6{fill:none;stroke:#FFFFFF;stroke-width:11.3511;stroke-linecap:round;stroke-miterlimit:10;}
</style>
<g id="Layer_1_1_">
	<g>
		<g>
			<path class="st0" d="M458.1,778.4c-116,0-210.4-94.4-210.4-210.4V391.9c0-116,94.4-210.4,210.4-210.4h43.8
				c116,0,210.4,94.4,210.4,210.4V568c0,116-94.4,210.4-210.4,210.4H458.1z"/>
			<path class="st1" d="M501.9,204.3c103.6,0,187.7,84,187.7,187.7v176.1c0,103.6-84,187.7-187.7,187.7h-43.8
				c-103.6,0-187.7-84-187.7-187.7V391.9c0-103.6,84-187.7,187.7-187.7h43.8 M501.9,158.9h-43.8c-31.4,0-62,6.2-90.7,18.3
				c-27.8,11.7-52.7,28.5-74.1,49.9s-38.2,46.3-49.9,74.1C231.2,330,225,360.5,225,391.9V568c0,31.4,6.2,62,18.3,90.7
				c11.7,27.8,28.5,52.7,49.9,74.1c21.4,21.4,46.3,38.2,74.1,49.9c28.8,12.2,59.3,18.3,90.7,18.3h43.8c31.4,0,62-6.2,90.7-18.3
				c27.8-11.7,52.7-28.5,74.1-49.9c21.4-21.4,38.2-46.3,49.9-74.1c12.2-28.8,18.3-59.3,18.3-90.7V391.9c0-31.4-6.2-62-18.3-90.7
				c-11.7-27.8-28.5-52.7-49.9-74.1s-46.3-38.2-74.1-49.9C563.9,165,533.3,158.9,501.9,158.9L501.9,158.9z"/>
		</g>
		<g>
			<g>
				<defs>
					<path id="SVGID_1_" d="M501.9,755.7h-43.8c-103.6,0-187.7-84-187.7-187.7V391.9c0-103.6,84-187.7,187.7-187.7h43.8
						c103.6,0,187.7,84,187.7,187.7V568C689.6,671.7,605.5,755.7,501.9,755.7z"/>
				</defs>
				<clipPath id="SVGID_2_">
					<use xlink:href="#SVGID_1_"  style="overflow:visible;"/>
				</clipPath>
				<path class="st2" d="M758.8,348.4c-6.2,0-11.9,1.7-16.9,4.6c-2.3-21.4-20.4-38-42.4-38c-21.9,0-39.9,16.5-42.3,37.8
					c-4.9-2.8-10.5-4.4-16.5-4.4c-18.6,0-33.6,15.1-33.6,33.6c0,18.6,15.1,33.6,33.6,33.6h116.7c0.2,0,0.5,0,0.7,0s0.5,0,0.7,0
					c18.6,0,33.6-15.1,33.6-33.6C792.4,363.4,777.3,348.4,758.8,348.4z"/>
			</g>
			<g>
				<defs>
					<path id="SVGID_3_" d="M501.9,755.7h-43.8c-103.6,0-187.7-84-187.7-187.7V391.9c0-103.6,84-187.7,187.7-187.7h43.8
						c103.6,0,187.7,84,187.7,187.7V568C689.6,671.7,605.5,755.7,501.9,755.7z"/>
				</defs>
				<clipPath id="SVGID_4_">
					<use xlink:href="#SVGID_3_"  style="overflow:visible;"/>
				</clipPath>
				<path class="st3" d="M535.8,467.5c0-0.1-0.1-0.2-0.1-0.4V467l0,0c-4.3-13.4-16.9-23.1-31.7-23.1c-1.6,0-3.1,0.1-4.6,0.4
					c1.4-4.3,2.2-8.8,2.2-13.5c0-23.7-19.2-42.9-42.9-42.9c-13,0-24.6,5.8-32.5,15c-7.9-24.8-31.1-42.8-58.5-42.8
					c-32.2,0-58.6,24.9-61.1,56.5c-9.8-12.5-25-20.5-42.1-20.5c-29.5,0-53.5,23.9-53.5,53.5c0,0.9,0.1,1.8,0.1,2.7H211l0.1,1.1
					c0.1,1.4,0.2,2.7,0.4,4l0.1,1.1c0,38.7,36.1,68,74.8,68H483C513.2,526.4,545.4,495.3,535.8,467.5z M421.6,452.2h-0.8
					c0.1-0.2,0.3-0.4,0.4-0.7C421.3,451.7,421.4,451.9,421.6,452.2z"/>
			</g>
			<g>
				<defs>
					<path id="SVGID_5_" d="M501.9,755.7h-43.8c-103.6,0-187.7-84-187.7-187.7V391.9c0-103.6,84-187.7,187.7-187.7h43.8
						c103.6,0,187.7,84,187.7,187.7V568C689.6,671.7,605.5,755.7,501.9,755.7z"/>
				</defs>
				<clipPath id="SVGID_6_">
					<use xlink:href="#SVGID_5_"  style="overflow:visible;"/>
				</clipPath>
				<polyline class="st4" points="573.9,844.6 335.1,557.9 426.6,557.9 666.7,694.3 				"/>
			</g>
		</g>
		<path class="st5" d="M291.1,306.4H669c-31.1-60.6-94.2-102.2-167.1-102.2h-43.8C385.3,204.3,322.2,245.8,291.1,306.4z"/>
		<line class="st6" x1="452.3" y1="273.1" x2="522.7" y2="273.1"/>
	</g>
</g>
</svg>
